<?xml version="1.0" encoding="UTF-8"?>
<svg version="1.1" xmlns="http://www.w3.org/2000/svg" width="1280" height="720">
<path d="M0 0 C422.4 0 844.8 0 1280 0 C1280 237.6 1280 475.2 1280 720 C857.6 720 435.2 720 0 720 C0 482.4 0 244.8 0 0 Z M20.6875 31.6640625 C7.14014631 49.47062208 5.55145161 65.90466237 5.61231995 87.46159363 C5.60814438 89.86459566 5.60266564 92.26759572 5.59600013 94.67059213 C5.58456778 99.88426719 5.58240605 105.09786018 5.58855057 110.3115406 C5.59766362 118.06489416 5.58959191 125.81816485 5.57825933 133.57151207 C5.55861291 147.42262571 5.55624121 161.27370189 5.56145453 175.12482614 C5.56601562 187.24944986 5.56540766 199.37405878 5.55961418 211.49868202 C5.55885731 213.12646125 5.55810133 214.75424048 5.55734624 216.3820197 C5.55620101 218.83510287 5.55505113 221.28818604 5.55388699 223.7412692 C5.54318472 246.54286472 5.53845382 269.34445533 5.54635715 292.14605236 C5.54665433 293.00523899 5.5469515 293.86442561 5.54725768 294.7496482 C5.54970649 301.72635688 5.55231814 308.7030655 5.55494181 315.67977411 C5.56504094 342.88395164 5.55669408 370.08806742 5.53344727 397.29223633 C5.50735494 427.87560834 5.49453221 458.45894319 5.50163502 489.04232675 C5.50235104 492.30563088 5.50302544 495.56893501 5.50367546 498.83223915 C5.50384527 499.63571169 5.50401508 500.43918422 5.50419003 501.26700441 C5.5064898 513.37806677 5.49853132 525.48909455 5.48538399 537.60014915 C5.47045077 551.38066804 5.4696588 565.16110605 5.4874549 578.94162323 C5.49699509 586.64554932 5.49562999 594.34928662 5.47822021 602.05319998 C5.46644468 607.8177476 5.47576222 613.58211205 5.49304258 619.34663872 C5.49679914 621.66958109 5.49389069 623.99254647 5.48343093 626.31546833 C5.38292071 650.35731906 8.80025262 669.10072876 25.75 687.125 C38.44481857 699.45149695 53.33636556 704.32824544 70.63683987 704.25168228 C71.78556911 704.25458916 72.93429836 704.25749604 74.11783758 704.26049101 C77.29770721 704.26651918 80.47742255 704.26363301 83.65728615 704.25693511 C87.12006124 704.25185077 90.58281798 704.25838587 94.04559046 704.26342177 C100.11175338 704.27063984 106.1778807 704.27042927 112.24404526 704.26532745 C121.26470863 704.25776144 130.28534197 704.26163054 139.30600513 704.26774407 C155.41732357 704.27827663 171.52862615 704.2773623 187.6399461 704.27158624 C201.73981463 704.2665561 215.83967734 704.26524127 229.93954659 704.26763153 C230.8746471 704.2677843 231.80974762 704.26793707 232.77318452 704.26809447 C236.56902667 704.26871714 240.36486881 704.26935394 244.16071096 704.270014 C279.77330558 704.27613285 315.38589011 704.27058381 350.99848318 704.2598202 C382.63953782 704.25032968 414.28057636 704.2511775 445.92163086 704.26074219 C481.46737988 704.27145129 517.01311997 704.27569813 552.55887038 704.26951766 C556.34812613 704.26887622 560.13738189 704.26825054 563.92663765 704.26763153 C565.32616314 704.2673943 565.32616314 704.2673943 566.75396187 704.26715227 C580.84442467 704.26487718 594.93488103 704.26753817 609.02534294 704.27259064 C625.04736346 704.27830705 641.06936563 704.276884 657.09138387 704.26602915 C666.05868676 704.26015427 675.02594992 704.25977656 683.99325178 704.2673215 C689.98305186 704.27180545 695.97282008 704.26901657 701.96261544 704.26031196 C705.37537595 704.25555432 708.78805752 704.25392789 712.20081555 704.26112393 C715.87972614 704.26719254 719.55841977 704.26098004 723.23731899 704.25168228 C724.29301375 704.25636461 725.3487085 704.26104695 726.43639401 704.26587117 C742.74520058 704.18331723 756.88532149 699.11238497 769 688 C769.63421875 687.44570313 770.2684375 686.89140625 770.921875 686.3203125 C781.84109974 676.22244538 789.47345054 659.92779848 790.13130188 645.02565002 C790.13652107 643.46136513 790.13652107 643.46136513 790.1418457 641.86547852 C790.14888016 640.67306046 790.15591461 639.4806424 790.16316223 638.25209045 C790.16732651 636.97393967 790.17149078 635.69578888 790.17578125 634.37890625 C790.18622863 633.03335299 790.19765501 631.68780702 790.21000671 630.3422699 C790.2620455 624.6586346 790.31029079 618.97512763 790.32592773 613.29125977 C790.33614989 609.80216723 790.36582727 606.31366751 790.40724754 602.82481194 C790.42516891 600.88276211 790.42293991 598.94055863 790.41999817 596.99842834 C790.67095591 578.42058219 796.94131751 561.95857287 810.1015625 548.6640625 C824.20239693 535.70345727 840.89750663 531.52368953 859.55874634 531.63491821 C861.11530078 531.6330567 862.6718541 531.62986443 864.22840345 531.6254667 C868.48060421 531.61717456 872.73258738 531.62732982 876.98476815 531.64055538 C881.58072165 531.65150544 886.17665391 531.64498523 890.77261353 531.64042664 C898.7309249 531.63469017 906.68917526 531.63929489 914.64748001 531.65044022 C926.17224305 531.66612616 937.69692436 531.66051434 949.22168867 531.64882378 C967.94613289 531.62994226 986.67056597 531.6207115 1005.39501953 531.62109375 C1006.51479212 531.62111119 1007.63456471 531.62112863 1008.7882698 531.6211466 C1021.27466071 531.62159859 1033.76104761 531.62492266 1046.24743652 531.63201904 C1047.36928054 531.63265143 1048.49112456 531.63328381 1049.64696386 531.63393535 C1050.76766101 531.63456792 1051.88835816 531.63520048 1053.04301584 531.63585222 C1055.30292852 531.63712198 1057.56284121 531.63838739 1059.82275391 531.63964844 C1060.93933642 531.64027663 1062.05591894 531.64090482 1063.20633729 531.64155205 C1081.85538905 531.65152185 1100.50437448 531.6421447 1119.15341222 531.61746442 C1130.6418191 531.60306494 1142.12999187 531.60504457 1153.61838512 531.62842642 C1161.49807169 531.64322328 1169.37762161 531.63996934 1177.25730284 531.6227975 C1181.79621924 531.61350077 1186.33475549 531.61218799 1190.87364197 531.63302803 C1195.04024315 531.65200835 1199.20617144 531.64742288 1203.37275045 531.62520044 C1204.86867862 531.62121102 1206.36465986 531.62542256 1207.86052866 531.6393344 C1227.55912912 531.81036977 1245.04827347 525.78431648 1259.2734375 511.8515625 C1274.41381972 496.01706533 1277.31711995 478.18162818 1277.25396729 457.1484375 C1277.25627537 455.46371323 1277.25945421 453.77898998 1277.26342177 452.0942688 C1277.27173068 447.49267853 1277.26766234 442.89117177 1277.26144934 438.2895813 C1277.2569098 433.31609547 1277.26391604 428.34262364 1277.26940918 423.36914062 C1277.27828882 413.6370865 1277.27638754 403.90506328 1277.2705839 394.17300797 C1277.26606179 386.26149492 1277.26545688 378.34999053 1277.26763153 370.43847656 C1277.267938 369.31121973 1277.26824446 368.1839629 1277.26856022 367.02254677 C1277.26919969 364.73233795 1277.26984811 362.44212913 1277.2705054 360.15192032 C1277.27620451 338.69131188 1277.26965738 317.23072054 1277.25890467 295.7701149 C1277.24996954 277.36756804 1277.2515217 258.96504641 1277.26074219 240.5625 C1277.27145222 219.17715032 1277.27565522 197.79181561 1277.26951766 176.40646362 C1277.26888058 174.1248169 1277.26825184 171.84317017 1277.26763153 169.56152344 C1277.26732298 168.43899485 1277.26701443 167.31646626 1277.26669653 166.15992165 C1277.26497179 158.26058212 1277.26787993 150.36125212 1277.27259064 142.46191406 C1277.27820761 132.83145839 1277.27666584 123.2010353 1277.26602915 113.57058334 C1277.26078345 108.65974891 1277.25869692 103.74896876 1277.26532745 98.83813477 C1277.27131182 94.33771921 1277.26797092 89.83740797 1277.25737235 85.3370018 C1277.25514884 83.71400937 1277.25625087 82.09100803 1277.26112393 80.46802139 C1277.29452629 68.41313697 1277.15505531 56.65877964 1271.3125 45.8125 C1270.95728271 45.13251953 1270.60206543 44.45253906 1270.23608398 43.75195312 C1261.92761671 28.24232043 1249.0227173 16.97530229 1232.125 11.625 C1225.31777794 9.66301871 1218.92111395 8.85193502 1211.84463781 8.8723495 C1211.03443746 8.87069872 1210.2242371 8.86904794 1209.38948522 8.86734714 C1206.66400959 8.86301988 1203.93858794 8.86582419 1201.21311092 8.86857224 C1199.23516604 8.86692271 1197.25722148 8.86483649 1195.27927747 8.86235213 C1189.81531997 8.85677425 1184.35137811 8.85745995 1178.88741868 8.85912972 C1172.95377596 8.85985938 1167.02013771 8.85484126 1161.08649689 8.8505547 C1150.67733 8.84384913 1140.26816613 8.84087674 1129.85899734 8.84041977 C1118.68809539 8.83991755 1107.51719707 8.83727231 1096.34629631 8.83201218 C1095.64111891 8.83168204 1094.93594151 8.83135191 1094.2093951 8.83101177 C1091.33737354 8.82966179 1088.46535199 8.82829912 1085.59333045 8.82691967 C1051.58185923 8.81061269 1017.5703887 8.80423052 983.55891424 8.7994718 C966.62486829 8.79708907 949.69082274 8.79338569 932.75677709 8.7894347 C878.44516426 8.77676994 824.13355144 8.76598599 769.82193715 8.76259424 C767.22585613 8.762432 764.62977511 8.76226644 762.03369409 8.76209986 C756.82716403 8.76176606 751.62063398 8.76143558 746.41410393 8.7611053 C740.31844959 8.7607184 734.22279525 8.76032879 728.12714091 8.75993423 C726.3825115 8.75982182 724.63788209 8.7597104 722.89325268 8.75959998 C666.85785097 8.75605029 610.82246208 8.740971 554.78706526 8.71766224 C514.52492194 8.70092138 474.26278104 8.68544589 434.00063419 8.68092728 C433.1726817 8.68083379 432.3447292 8.6807403 431.49168723 8.68064399 C413.31629308 8.67862496 395.14089897 8.6774689 376.96550471 8.6771154 C370.46199683 8.67697923 363.95848895 8.67677023 357.45498107 8.67652215 C355.83705402 8.67646059 354.21912697 8.67640227 352.60119992 8.6763472 C326.81748234 8.67542728 301.03377814 8.66545789 275.25006496 8.65088971 C249.28029528 8.63627512 223.31054201 8.63123102 197.34076894 8.63930925 C193.75168302 8.64042462 190.16259709 8.64143529 186.57351112 8.64238358 C185.86995566 8.64257354 185.1664002 8.64276351 184.44152487 8.64295924 C173.30392194 8.64569229 162.16634938 8.63835284 151.02875305 8.62681021 C140.07543306 8.61566828 129.12215076 8.61548997 118.1688292 8.62618039 C112.31021339 8.63158873 106.45170315 8.63223008 100.59309595 8.61967167 C95.26193005 8.60833904 89.93095569 8.61085036 84.59979645 8.62433875 C82.68454639 8.62677163 80.76928161 8.62419268 78.85404778 8.61594227 C55.92449194 8.5236711 36.37486206 13.59179743 20.6875 31.6640625 Z " fill="#FEFEFE" transform="translate(0,0)"/>
</svg>
